<?xml version="1.0" standalone="no"?>
<!DOCTYPE svg PUBLIC "-//W3C//DTD SVG 20010904//EN"
 "http://www.w3.org/TR/2001/REC-SVG-20010904/DTD/svg10.dtd">
<svg version="1.0" xmlns="http://www.w3.org/2000/svg"
 width="63.000000pt" height="63.000000pt" viewBox="0 0 63.000000 63.000000"
 preserveAspectRatio="xMidYMid meet">

<g transform="translate(0.000000,63.000000) scale(0.100000,-0.100000)"
fill="#000000" stroke="none">
<path d="M223 612 c-112 -40 -176 -107 -208 -217 -22 -75 -15 -141 25 -222 53
-107 152 -168 275 -168 125 0 222 61 277 173 28 56 33 77 33 137 0 123 -61
222 -170 276 -81 40 -159 47 -232 21z m65 -88 c3 -27 56 -94 74 -94 15 0 8 58
-7 64 -25 9 -19 65 8 75 49 19 87 -42 48 -76 -26 -22 -27 -45 -1 -68 38 -34
20 -85 -30 -85 -14 0 -31 -5 -38 -12 -17 -17 4 -38 36 -38 32 0 102 65 102 95
0 27 18 45 45 45 42 0 59 -44 29 -74 -8 -9 -25 -16 -37 -16 -22 0 -87 -56 -87
-75 0 -17 36 -11 59 9 41 38 106 -17 71 -59 -16 -19 -54 -19 -70 0 -16 19 -54
19 -70 0 -15 -18 -51 -20 -68 -3 -7 7 -12 24 -12 39 0 15 -6 31 -13 38 -19 15
-37 -6 -37 -44 0 -39 57 -98 95 -100 46 -2 61 -53 24 -79 -35 -24 -69 -3 -69
44 0 22 -54 90 -72 90 -15 0 -8 -58 7 -64 23 -8 18 -53 -7 -70 -19 -13 -25
-14 -43 -2 -26 17 -31 49 -11 69 20 20 20 61 1 77 -18 15 -20 54 -2 68 6 6 26
12 42 14 22 2 30 8 30 23 0 15 -8 21 -34 23 -27 3 -40 -3 -67 -29 -22 -21 -34
-43 -34 -59 0 -14 -5 -31 -12 -38 -15 -15 -51 -15 -66 0 -27 27 -1 78 41 78
22 0 87 56 87 75 0 17 -36 11 -59 -9 -41 -38 -106 17 -71 59 16 19 54 19 70 0
7 -8 23 -15 35 -15 12 0 28 7 35 15 15 18 51 20 68 3 7 -7 12 -24 12 -39 0
-15 6 -31 13 -38 19 -15 37 6 37 44 0 39 -57 98 -95 100 -46 2 -61 53 -23 79
19 13 25 14 43 2 11 -7 21 -26 23 -42z"/>
<path d="M224 539 c-3 -6 0 -17 7 -25 18 -17 44 -2 36 20 -7 18 -33 21 -43 5z"/>
<path d="M363 534 c-8 -22 18 -37 36 -20 7 8 10 19 7 25 -10 16 -36 13 -43 -5z"/>
<path d="M87 396 c-8 -20 20 -43 35 -28 14 14 3 42 -16 42 -7 0 -16 -6 -19
-14z"/>
<path d="M224 399 c-3 -6 0 -17 7 -25 18 -17 44 -2 36 20 -7 18 -33 21 -43 5z"/>
<path d="M363 394 c-3 -8 -1 -20 6 -27 14 -14 47 15 37 32 -10 16 -36 13 -43
-5z"/>
<path d="M503 394 c-3 -8 -1 -20 5 -26 15 -15 43 8 35 28 -7 19 -32 18 -40 -2z"/>
<path d="M92 257 c-15 -17 1 -42 23 -33 18 6 17 37 -1 43 -6 2 -16 -2 -22 -10z"/>
<path d="M230 255 c-10 -11 -10 -19 -2 -27 15 -15 44 -2 40 19 -4 23 -22 27
-38 8z"/>
<path d="M364 255 c-7 -18 3 -35 21 -35 21 0 28 19 15 35 -16 19 -29 19 -36 0z"/>
<path d="M504 255 c-7 -18 3 -35 21 -35 18 0 26 25 12 39 -15 15 -27 14 -33
-4z"/>
<path d="M229 114 c-9 -11 -9 -18 -1 -26 14 -14 42 -3 42 16 0 20 -27 27 -41
10z"/>
<path d="M371 121 c-17 -11 -7 -41 13 -41 22 0 30 20 15 36 -9 8 -19 10 -28 5z"/>
</g>
</svg>
